<svg class="social-svg" viewBox="0 0 40 40" xmlns="http://www.w3.org/2000/svg">
  <path d="M21.0281 10C22.1535 10.0019 22.7238 10.0078 23.2166 10.0225L23.4107 10.0288C23.6349 10.0368 23.8561 10.0468 24.1228 10.0593C25.1869 10.1085 25.9128 10.2768 26.5503 10.5243C27.2094 10.7785 27.7661 11.1218 28.3219 11.6776C28.8769 12.2335 29.2203 12.7918 29.4753 13.4493C29.7219 14.086 29.8903 14.8126 29.9403 15.8768C29.9522 16.1435 29.9618 16.3647 29.9697 16.5889L29.976 16.783C29.9906 17.2757 29.9973 17.8461 29.9994 18.9715L30.0003 19.9993L29.9996 21.0271C29.9977 22.1525 29.9918 22.7228 29.9771 23.2156L29.9707 23.4097C29.9628 23.6339 29.9528 23.8551 29.9403 24.1218C29.8911 25.1859 29.7219 25.9118 29.4753 26.5493C29.2211 27.2084 28.8769 27.7651 28.3219 28.3209C27.7661 28.8759 27.2069 29.2193 26.5503 29.4743C25.9128 29.7209 25.1869 29.8893 24.1228 29.9393C23.8561 29.9512 23.6349 29.9608 23.4107 29.9687L23.2166 29.975C22.7238 29.9896 22.1535 29.9963 21.0281 29.9984L20.0003 29.9993L18.9725 29.9986C17.8471 29.9967 17.2767 29.9908 16.784 29.9761L16.5899 29.9697C16.3656 29.9618 16.1444 29.9518 15.8778 29.9393C14.8136 29.8901 14.0886 29.7209 13.4503 29.4743C12.7919 29.2201 12.2344 28.8759 11.6786 28.3209C11.1228 27.7651 10.7803 27.2059 10.5253 26.5493C10.2778 25.9118 10.1103 25.1859 10.0603 24.1218C10.0484 23.8551 10.0387 23.6339 10.0309 23.4097L10.0246 23.2156C10.0099 22.7228 10.0033 22.1525 10.0011 21.0271L10.0003 19.9993L10.0011 18.9715C10.0028 17.8461 10.0088 17.2757 10.0235 16.783L10.0298 16.5889C10.0378 16.3647 10.0478 16.1435 10.0603 15.8768C10.1094 14.8118 10.2778 14.0868 10.5253 13.4493C10.7794 12.791 11.1228 12.2335 11.6786 11.6776C12.2344 11.1218 12.7928 10.7793 13.4503 10.5243C14.0878 10.2768 14.8128 10.1093 15.8778 10.0593C16.1444 10.0474 16.3656 10.0377 16.5899 10.0299L16.784 10.0236C17.2767 10.009 17.8471 10.0023 18.9725 10.0001L21.0281 10ZM20.0003 14.9993C17.2374 14.9993 15.0003 17.2388 15.0003 19.9993C15.0003 22.7622 17.2398 24.9993 20.0003 24.9993C22.7632 24.9993 25.0003 22.7597 25.0003 19.9993C25.0003 17.2364 22.7607 14.9993 20.0003 14.9993Z"/>
</svg>