<svg class="social-svg" viewBox="0 0 40 40" xmlns="http://www.w3.org/2000/svg">
  <path d="M20.2439 12C20.778 12.0029 22.1143 12.0159 23.5341 12.0727L24.0375 12.0947C25.467 12.1624 26.8953 12.278 27.6037 12.4755C28.5486 12.741 29.2913 13.5155 29.5423 14.4973C29.942 16.0564 29.992 19.0994 29.9982 19.8358L29.9991 19.9884V19.9991C29.9991 19.9991 29.9991 20.0028 29.9991 20.0099L29.9982 20.1625C29.992 20.8989 29.942 23.9419 29.5423 25.501C29.2878 26.4864 28.5451 27.261 27.6037 27.5228C26.8953 27.7203 25.467 27.8359 24.0375 27.9036L23.5341 27.9255C22.1143 27.9824 20.778 27.9953 20.2439 27.9983L20.0095 27.9991H19.9991C19.9991 27.9991 19.9956 27.9991 19.9887 27.9991L19.7545 27.9983C18.6241 27.9921 13.8977 27.941 12.3945 27.5228C11.4496 27.2573 10.7069 26.4828 10.4559 25.501C10.0562 23.9419 10.0062 20.8989 10 20.1625V19.8358C10.0062 19.0994 10.0562 16.0564 10.4559 14.4973C10.7104 13.5119 11.4531 12.7373 12.3945 12.4755C13.8977 12.0572 18.6241 12.0062 19.7545 12H20.2439ZM17.9991 16.4991V23.4991L23.9991 19.9991L17.9991 16.4991Z"/>
</svg>