<svg width="77" height="107" viewBox="0 0 77 107" fill="none" xmlns="http://www.w3.org/2000/svg">
<path d="M76.0181 37.9964C76.0181 17.0094 58.9985 0 38.009 0C17.0108 0 0 17.0094 0 37.9964C0 45.8371 2.37492 53.1188 6.44774 59.1658H6.43901L6.48156 59.2293C6.49028 59.238 6.49028 59.2422 6.49796 59.2509L38.0087 106.572L69.5784 59.1658H69.5609C73.6341 53.1188 76.0181 45.8374 76.0181 37.9964Z" fill="#FF7700"/>
<path d="M58.6105 42.896C61.2981 31.5177 54.2499 20.1159 42.8679 17.4292C31.486 14.7424 20.0803 21.7883 17.3927 33.1665C14.7051 44.5447 21.7533 55.9466 33.1353 58.6333C44.5172 61.32 55.9229 54.2742 58.6105 42.896Z" fill="white"/>
</svg>
