<svg width="68" height="95" viewBox="0 0 68 95" fill="none" xmlns="http://www.w3.org/2000/svg">
<path d="M67.6792 33.8284C67.6792 15.1435 52.5267 0 33.8396 0C15.145 0 0 15.1435 0 33.8284C0 40.8091 2.11475 47.2914 5.74081 52.6757H5.73328L5.771 52.7321C5.77855 52.7396 5.77853 52.7436 5.78563 52.7511L33.8396 94.8816L61.9464 52.6757H61.9308C65.5569 47.2914 67.6792 40.8091 67.6792 33.8284Z" fill="#DC2626"/>
<path d="M33.8405 52.6747C23.424 52.6747 14.9873 44.2364 14.9873 33.8274C14.9873 23.4184 23.424 14.9805 33.8405 14.9805C44.2494 14.9805 52.694 23.4184 52.694 33.8274C52.694 44.2364 44.2494 52.6747 33.8405 52.6747Z" fill="white"/>
</svg>
