<svg class="social-svg" viewBox="0 0 40 40" xmlns="http://www.w3.org/2000/svg">
  <path d="M20 8C26.623 8 32 13.377 32 20C32 26.623 26.623 32 20 32C13.377 32 8 26.623 8 20C8 13.377 13.377 8 20 8ZM16.2483 26.744V17.3727H13.1328V26.744H16.2483ZM27.4805 26.744V21.3699C27.4805 18.4914 25.9436 17.1523 23.8941 17.1523C22.2415 17.1523 21.5013 18.0612 21.0868 18.6995V17.3727H17.9721C18.0134 18.2519 17.9721 26.744 17.9721 26.744H21.0868V21.5104C21.0868 21.2302 21.1069 20.9502 21.1895 20.75C21.4142 20.1905 21.9271 19.611 22.7877 19.611C23.9143 19.611 24.3656 20.4707 24.3656 21.7299V26.744H27.4805ZM14.7116 12.8539C13.6456 12.8539 12.9492 13.5547 12.9492 14.4732C12.9492 15.3724 13.6244 16.0925 14.6703 16.0925H14.6904C15.7768 16.0925 16.4529 15.3724 16.4529 14.4732C16.4328 13.5547 15.7768 12.8539 14.7116 12.8539Z"/>
</svg>