<svg width="309" height="232" viewBox="0 0 309 232" fill="none" xmlns="http://www.w3.org/2000/svg">
<path d="M74.9128 156.866H55.5067V194.957H74.9128V156.866Z" fill="#5D2866"/>
<path d="M94.2827 208.182H34.7932C32.6948 208.182 30.994 206.482 30.994 204.385V196.229C30.994 194.132 32.6948 192.432 34.7932 192.432H94.2827C96.3811 192.432 98.0819 194.132 98.0819 196.229V204.386C98.0819 206.482 96.3811 208.182 94.2827 208.182Z" fill="#5D2866"/>
<path d="M179.105 171.985H6.46244C2.89327 171.985 0 169.094 0 165.527V58.7121C0 55.1451 2.89327 52.2536 6.46244 52.2536H179.105C182.674 52.2536 185.567 55.1451 185.567 58.7121V165.526C185.568 169.094 182.674 171.985 179.105 171.985Z" fill="#5D2866"/>
<path d="M170.553 154.899H15.017C12.0242 154.899 9.59835 152.475 9.59835 149.484V66.4331C9.59835 63.4421 12.0242 61.0177 15.017 61.0177H170.553C173.546 61.0177 175.972 63.4421 175.972 66.4331V149.484C175.972 152.474 173.546 154.899 170.553 154.899Z" fill="#A76FA8"/>
<path d="M154.299 82.5895H31.2662C28.9015 82.5895 26.9848 80.674 26.9848 78.3108C26.9848 75.9477 28.9015 74.0315 31.2662 74.0315H154.299C156.663 74.0315 158.58 75.947 158.58 78.3108C158.58 80.674 156.663 82.5895 154.299 82.5895Z" fill="#D098D3"/>
<path d="M154.299 97.0018H31.2662C28.9015 97.0018 26.9848 95.0863 26.9848 92.7225C26.9848 90.3586 28.9015 88.4438 31.2662 88.4438H154.299C156.663 88.4438 158.58 90.3593 158.58 92.7225C158.58 95.0856 156.663 97.0018 154.299 97.0018Z" fill="#D098D3"/>
<path d="M154.299 111.414H31.2662C28.9015 111.414 26.9848 109.498 26.9848 107.135C26.9848 104.772 28.9015 102.856 31.2662 102.856H154.299C156.663 102.856 158.58 104.772 158.58 107.135C158.58 109.498 156.663 111.414 154.299 111.414Z" fill="#D098D3"/>
<path d="M65.2126 166.121C67.2076 166.121 68.8248 164.505 68.8248 162.511C68.8248 160.518 67.2076 158.901 65.2126 158.901C63.2176 158.901 61.6004 160.518 61.6004 162.511C61.6004 164.505 63.2176 166.121 65.2126 166.121Z" fill="#A76FA8"/>
<path d="M292.093 199.129H105.274V90.974C105.274 86.3726 109.006 82.6416 113.611 82.6416H283.757C288.361 82.6416 292.093 86.3719 292.093 90.974V199.129Z" fill="#FFC9B8"/>
<path d="M279.249 188.478H118.086C115.041 188.478 112.573 186.011 112.573 182.969V100.106C112.573 97.063 115.042 94.5969 118.086 94.5969H279.249C282.294 94.5969 284.761 97.0636 284.761 100.106V182.968C284.761 186.011 282.293 188.478 279.249 188.478Z" fill="#FFEEEB"/>
<path d="M303.726 208.182H95.5347C92.6562 208.182 90.3225 205.85 90.3225 202.973V202.731C90.3225 199.854 92.6562 197.522 95.5347 197.522H303.726C306.605 197.522 308.938 199.854 308.938 202.731V202.973C308.938 205.85 306.605 208.182 303.726 208.182Z" fill="#FF997D"/>
<path d="M85.7217 204.455H54.3322C54.1412 204.455 53.9858 204.3 53.9858 204.109C53.9858 203.918 54.1405 203.763 54.3322 203.763H85.7217C85.9127 203.763 86.068 203.917 86.068 204.109C86.0673 204.3 85.9127 204.455 85.7217 204.455Z" fill="#D098D3"/>
<path d="M3.20028 101.117C3.0094 101.117 2.85414 100.962 2.85414 100.771V61.0181C2.85414 60.8272 3.00873 60.6719 3.20028 60.6719C3.39183 60.6719 3.54642 60.8265 3.54642 61.0181V100.771C3.54642 100.962 3.39183 101.117 3.20028 101.117Z" fill="#D098D3"/>
<path d="M163.04 87.5072H117.571C117.38 87.5072 117.225 87.3526 117.225 87.1611C117.225 86.9702 117.38 86.8149 117.571 86.8149H163.04C163.231 86.8149 163.386 86.9695 163.386 87.1611C163.386 87.352 163.232 87.5072 163.04 87.5072Z" fill="#FFEEEB"/>
<path d="M226.032 203.199H171.331C171.14 203.199 170.984 203.044 170.984 202.853C170.984 202.661 171.139 202.506 171.331 202.506H226.032C226.223 202.506 226.378 202.661 226.378 202.853C226.378 203.044 226.223 203.199 226.032 203.199Z" fill="#A76FA8"/>
<path d="M193.193 138.155H145.801C144.102 138.155 142.724 136.778 142.724 135.079V114.166C142.724 112.467 144.102 111.09 145.801 111.09H193.193C194.893 111.09 196.271 112.467 196.271 114.166V135.079C196.271 136.778 194.893 138.155 193.193 138.155Z" fill="#AACCC8"/>
<path d="M193.193 173.291H145.801C144.102 173.291 142.724 171.914 142.724 170.216V149.302C142.724 147.604 144.102 146.227 145.801 146.227H193.193C194.893 146.227 196.271 147.604 196.271 149.302V170.216C196.271 171.915 194.893 173.291 193.193 173.291Z" fill="#AACCC8"/>
<path d="M253.509 138.155H206.117C204.418 138.155 203.04 136.778 203.04 135.079V114.166C203.04 112.467 204.418 111.09 206.117 111.09H253.509C255.208 111.09 256.587 112.467 256.587 114.166V135.079C256.586 136.778 255.208 138.155 253.509 138.155Z" fill="#AACCC8"/>
<path d="M253.509 173.291H206.117C204.418 173.291 203.04 171.914 203.04 170.216V149.302C203.04 147.604 204.418 146.227 206.117 146.227H253.509C255.208 146.227 256.587 147.604 256.587 149.302V170.216C256.586 171.915 255.208 173.291 253.509 173.291Z" fill="#AACCC8"/>
<path d="M256.959 224.382C256.814 224.382 256.668 224.341 256.541 224.255C256.197 224.023 256.106 223.557 256.338 223.214L284.073 182.108C284.305 181.765 284.772 181.674 285.114 181.905C285.458 182.137 285.549 182.603 285.317 182.946L257.582 224.052C257.436 224.267 257.2 224.382 256.959 224.382Z" fill="#81538C"/>
<path d="M284.697 224.382C284.453 224.382 284.214 224.263 284.069 224.044L259.851 187.176C259.624 186.83 259.721 186.366 260.066 186.138C260.414 185.912 260.877 186.008 261.105 186.353L285.323 223.222C285.551 223.568 285.454 224.032 285.108 224.26C284.981 224.343 284.839 224.382 284.697 224.382Z" fill="#81538C"/>
<path d="M265.514 195.178C265.106 195.178 264.773 194.854 264.764 194.445C264.755 194.031 265.084 193.688 265.498 193.679L276.815 193.436C277.238 193.436 277.572 193.761 277.581 194.169C277.59 194.583 277.261 194.926 276.848 194.936L265.531 195.178C265.525 195.178 265.519 195.178 265.514 195.178Z" fill="#81538C"/>
<path d="M284.66 152.035C284.66 152.035 294.791 158.091 292.538 171.376C289.946 186.66 274.699 191.615 261.473 188.004C248.247 184.394 250.451 173.98 250.451 173.98L284.66 152.035Z" fill="#286C7C"/>
<path d="M226.68 213.578C226.68 213.578 216.985 218.219 214.118 220.924C211.252 223.629 211.106 225.472 211.436 226.377C211.767 227.282 231.821 226.384 231.821 226.384C231.821 226.384 232.038 220.879 234.175 221.234C236.312 221.589 235.144 226.521 235.144 226.521L241.207 226.464C241.207 226.464 241.487 220.991 241.046 218.842C240.571 216.524 239.225 213.394 239.225 213.394L226.68 213.578Z" fill="#62A39B"/>
<path d="M228.749 211.977C228.749 211.977 220.406 216.681 221.929 217.169C223.452 217.657 232.049 217.74 234.57 216.823C237.091 215.907 239.199 213.296 239.199 213.296L233.478 210.588L228.749 211.977Z" fill="#F48462"/>
<path d="M239.199 213.295L240.281 208.519L230.028 206.438L228.541 214.009L239.199 213.295Z" fill="#F48462"/>
<path d="M252.933 208.312C252.933 208.312 246.984 217.26 245.909 221.051C244.833 224.842 245.652 226.499 246.399 227.108C247.146 227.717 263.911 216.681 263.911 216.681C263.911 216.681 261.277 211.841 263.295 211.053C265.312 210.265 266.836 215.098 266.836 215.098L272.015 211.947C272.015 211.947 269.45 207.102 267.971 205.482C266.376 203.734 263.615 201.734 263.615 201.734L252.933 208.312Z" fill="#62A39B"/>
<path d="M253.89 205.878C253.89 205.878 249.134 214.188 250.692 213.828C252.25 213.469 259.677 209.139 261.372 207.062C263.068 204.985 263.541 201.663 263.541 201.663L257.239 202.266L253.89 205.878Z" fill="#F48462"/>
<path d="M263.542 201.663L262.024 197.007L252.149 200.467L254.752 207.731L263.542 201.663Z" fill="#F48462"/>
<path d="M256.484 177.314L266.308 200.559L249.683 206.438L243.756 192.377L248.669 177.314H256.484Z" fill="#FFBA57"/>
<path d="M277.966 167.556C277.966 167.556 279.039 179.805 276.027 181.372C273.016 182.94 251.017 185.333 249.901 186.312C248.784 187.292 241.292 211.047 241.292 211.047L222.962 209.215C222.962 209.215 229.586 176.486 234.409 173.155C238.033 170.652 258.108 167.556 258.108 167.556H277.966Z" fill="#FFBA57"/>
<path d="M265.231 125.796C265.231 125.796 269.068 124.085 272.487 126.25C275.906 128.415 274.637 133.44 274.637 133.44C274.637 133.44 279.236 137.909 279.739 142.462C280.241 147.014 277.889 148.208 277.889 148.208L270.185 144.738L267.153 130.47L265.231 125.796Z" fill="#5D2866"/>
<path d="M256.643 143.539C256.643 143.539 255.524 139.769 257.118 137.67C258.798 135.459 261.531 135.32 261.517 133.493C261.485 129.25 264.562 127.29 264.562 127.29L264.692 144L256.643 143.539Z" fill="#5D2866"/>
<path d="M262.598 140.513C262.598 140.513 257.908 140.808 255.886 143.23C254.471 144.924 248.021 150.915 247.055 152.111C246.178 153.195 241.098 154.818 239.37 153.964C239.226 153.893 239.065 153.973 239.034 154.132C238.665 156.02 236.141 158.426 236.632 162.796C236.718 163.567 244.07 169.279 250.947 167.04C257.823 164.801 260.133 158.303 260.133 158.303L262.598 140.513Z" fill="#A76FA8"/>
<path d="M252.875 169.391C252.875 169.391 266.929 171.736 267.177 169.848C267.743 165.534 270.974 142.883 270.974 142.883L269.05 139.844L262.899 140.567C262.899 140.567 259.951 140.882 257.066 148.78C254.183 156.678 252.875 169.391 252.875 169.391Z" fill="#A76FA8"/>
<path d="M269.655 137.038L269.544 141.456C269.544 141.456 268.714 142.706 266.123 142.851C264.192 142.959 263.607 141.955 263.607 141.955L264.171 138.1L268.866 137.191L269.655 137.038Z" fill="#F48462"/>
<path d="M268.868 137.191C268.854 137.311 268.804 137.452 268.728 137.614C267.684 139.797 264.968 140.205 263.852 140.276L264.171 138.1L268.868 137.191Z" fill="black"/>
<path d="M263.44 128.004C263.44 128.004 260.98 133.485 261.818 136.586C262.655 139.687 265.479 139.227 267.172 138.645C268.865 138.064 269.657 137.038 269.657 137.038C269.657 137.038 271.227 137.587 272.295 136.132C273.363 134.678 272.73 132.99 271.834 132.596C270.939 132.203 269.863 132.841 269.863 132.841L270.717 131.249C270.717 131.249 267.267 123.087 263.44 128.004Z" fill="#F48462"/>
<path d="M269.863 132.842C269.863 132.842 267.494 133.319 265.849 130.685C264.203 128.051 264.355 126.969 264.355 126.969L262.715 129.689C262.715 129.689 262.348 127.803 263.103 126.601C263.858 125.399 264.641 125.648 264.641 125.648L269.863 126.952L271.239 131.135L269.863 132.842Z" fill="#5D2866"/>
<path d="M263.627 135.019C263.544 135.019 263.468 134.966 263.442 134.882C263.078 133.695 263.916 132.493 263.953 132.443C264.015 132.356 264.136 132.334 264.222 132.397C264.31 132.459 264.331 132.579 264.269 132.667C264.261 132.678 263.505 133.766 263.812 134.768C263.844 134.87 263.787 134.979 263.684 135.01C263.665 135.016 263.646 135.019 263.627 135.019Z" fill="black"/>
<path d="M266.078 131.228C265.998 131.228 265.924 131.179 265.895 131.101C265.59 130.252 265.14 130.348 265.12 130.35C265.018 130.372 264.912 130.312 264.887 130.209C264.861 130.107 264.92 130.004 265.021 129.975C265.054 129.968 265.829 129.769 266.261 130.97C266.297 131.07 266.245 131.181 266.144 131.218C266.122 131.225 266.099 131.228 266.078 131.228Z" fill="black"/>
<path d="M262.602 130.383C262.587 130.383 262.571 130.381 262.556 130.377C262.452 130.351 262.389 130.247 262.414 130.143C262.425 130.099 262.528 129.707 262.869 129.571C263.089 129.483 263.343 129.527 263.621 129.704C263.711 129.763 263.738 129.882 263.68 129.972C263.621 130.062 263.501 130.087 263.411 130.031C263.299 129.958 263.138 129.88 263.015 129.931C262.881 129.982 262.808 130.168 262.791 130.235C262.768 130.324 262.689 130.383 262.602 130.383Z" fill="black"/>
<path d="M270.09 135.443C270.042 135.443 269.994 135.425 269.957 135.39C269.879 135.316 269.875 135.193 269.949 135.116L271.45 133.536C271.523 133.457 271.646 133.455 271.723 133.529C271.801 133.602 271.805 133.725 271.731 133.802L270.23 135.382C270.192 135.423 270.141 135.443 270.09 135.443Z" fill="black"/>
<path d="M271.675 135.022C271.646 135.02 270.611 134.861 270.611 134.861C270.506 134.845 270.432 134.745 270.449 134.64C270.465 134.534 270.564 134.462 270.67 134.478L271.705 134.637C271.81 134.653 271.884 134.753 271.867 134.858C271.852 134.954 271.77 135.022 271.675 135.022Z" fill="black"/>
<path d="M263.005 170.539C263.005 170.539 269.53 140.323 269.54 140.065C269.55 139.807 269.55 139.807 269.55 139.807C269.55 139.807 275.232 141.47 277.194 143.863C278.62 145.603 276.263 169.745 275.578 170.196C274.893 170.647 263.005 170.539 263.005 170.539Z" fill="#A76FA8"/>
<path d="M252.879 169.391C252.879 169.391 254.403 162.694 257.926 153.455C261.48 144.135 263.855 140.276 263.855 140.276C263.855 140.276 259.542 140.851 258.034 141.677C256.97 142.261 252.835 151.449 252.133 158.053C251.431 164.656 251.028 168.923 251.028 168.923C251.363 169.214 252.879 169.391 252.879 169.391Z" fill="#A76FA8"/>
<path d="M247.832 156.19C247.694 156.19 247.559 156.154 247.43 156.084C246.401 155.518 246.052 152.763 246.016 152.451C246.007 152.373 246.047 152.297 246.115 152.259C246.185 152.222 246.27 152.228 246.331 152.279C246.588 152.489 248.836 154.365 248.704 155.479C248.682 155.666 248.582 155.925 248.238 156.092C248.103 156.157 247.966 156.19 247.832 156.19ZM246.476 152.914C246.64 153.88 247.017 155.414 247.617 155.744C247.76 155.822 247.902 155.821 248.07 155.742C248.272 155.644 248.31 155.519 248.319 155.434C248.395 154.792 247.239 153.6 246.476 152.914Z" fill="#431949"/>
<path d="M266.231 143C264.476 143 263.521 142.139 263.476 142.097C263.397 142.024 263.392 141.902 263.464 141.824C263.537 141.745 263.66 141.741 263.738 141.812C263.749 141.822 264.879 142.832 266.905 142.568C268.897 142.311 269.351 141.01 269.369 140.954C269.403 140.853 269.512 140.798 269.613 140.83C269.715 140.863 269.771 140.972 269.738 141.073C269.717 141.138 269.201 142.663 266.954 142.953C266.7 142.986 266.458 143 266.231 143Z" fill="#5D2866"/>
<path d="M262.661 132.867C262.525 132.849 262.45 132.749 262.466 132.64L262.602 131.718L262.272 131.309C262.203 131.224 262.217 131.099 262.301 131.031C262.386 130.963 262.51 130.976 262.579 131.061L262.963 131.538C262.998 131.581 263.013 131.636 263.006 131.691L262.857 132.699C262.843 132.796 262.758 132.867 262.661 132.867Z" fill="black"/>
<path d="M265.663 133.109C265.53 133.093 265.453 132.994 265.467 132.886L265.584 131.972L265.09 131.485C265.013 131.409 265.011 131.283 265.088 131.206C265.164 131.128 265.288 131.127 265.367 131.204L265.931 131.759C265.975 131.802 265.997 131.863 265.988 131.924L265.859 132.936C265.846 133.035 265.761 133.109 265.663 133.109Z" fill="black"/>
<path d="M254.22 152.273C254.205 152.273 254.188 152.271 254.172 152.267C254.069 152.24 254.006 152.135 254.033 152.031L255.105 147.881C255.131 147.778 255.235 147.717 255.342 147.741C255.445 147.768 255.508 147.874 255.481 147.978L254.409 152.128C254.386 152.216 254.307 152.273 254.22 152.273Z" fill="#5D2866"/>
<path d="M264.372 136.984C263.821 136.984 263.147 136.517 263.063 136.456C262.999 136.412 262.969 136.333 262.986 136.258C263.002 136.182 263.062 136.123 263.139 136.108L265.538 135.636C265.614 135.621 265.694 135.654 265.737 135.719C265.78 135.785 265.78 135.87 265.736 135.935C265.676 136.023 265.137 136.803 264.584 136.957C264.517 136.976 264.445 136.984 264.372 136.984ZM263.708 136.391C263.985 136.531 264.293 136.638 264.48 136.583C264.681 136.527 264.91 136.322 265.096 136.119L263.708 136.391Z" fill="black"/>
<path d="M245.415 197.731C245.391 197.731 245.368 197.727 245.345 197.718C245.245 197.679 245.195 197.567 245.234 197.467C245.405 197.029 249.429 186.718 250.211 185.786C251.01 184.832 258.077 184.331 258.881 184.277C259.007 184.282 259.081 184.351 259.088 184.457C259.095 184.564 259.015 184.657 258.908 184.664C255.937 184.864 251.03 185.412 250.508 186.035C249.916 186.742 247.037 193.914 245.596 197.608C245.565 197.685 245.492 197.731 245.415 197.731Z" fill="#5D2866"/>
<path d="M250.356 186.104C250.321 186.104 250.286 186.095 250.255 186.077C250.127 185.999 247.105 184.154 246.827 182.617C246.764 182.271 246.839 181.962 247.047 181.699C247.296 181.384 247.566 181.352 247.751 181.385C248.984 181.588 250.382 185.411 250.539 185.846C250.566 185.923 250.543 186.009 250.479 186.061C250.443 186.09 250.4 186.104 250.356 186.104ZM247.639 181.763C247.565 181.763 247.466 181.794 247.352 181.939C247.213 182.114 247.166 182.314 247.209 182.548C247.393 183.571 249.105 184.845 249.967 185.427C249.362 183.886 248.363 181.878 247.688 181.768C247.673 181.765 247.656 181.763 247.639 181.763Z" fill="#5D2866"/>
<path d="M286.672 179.824C286.62 179.824 286.568 179.803 286.529 179.762C286.457 179.683 286.461 179.56 286.54 179.488C289.812 176.463 290.443 170.525 290.449 170.465C290.46 170.359 290.555 170.283 290.661 170.291C290.768 170.302 290.845 170.397 290.835 170.503C290.81 170.753 290.183 176.65 286.804 179.772C286.767 179.806 286.72 179.824 286.672 179.824Z" fill="#28A09A"/>
<path d="M241.202 167.337H260.978C261.68 167.337 262.25 166.768 262.25 166.066V152.631C262.25 151.93 261.681 151.36 260.978 151.36H241.202C240.5 151.36 239.931 151.929 239.931 152.631V166.066C239.931 166.768 240.5 167.337 241.202 167.337Z" fill="white"/>
<path d="M239.724 167.337H259.584C260.287 167.337 260.857 166.767 260.857 166.064V152.634C260.857 151.931 260.287 151.361 259.584 151.361H239.724C239.021 151.361 238.45 151.931 238.45 152.634V166.064C238.45 166.767 239.021 167.337 239.724 167.337Z" fill="#5D2866"/>
<path d="M248.257 161.229C249.296 161.229 250.138 160.387 250.138 159.349C250.138 158.311 249.296 157.469 248.257 157.469C247.218 157.469 246.376 158.311 246.376 159.349C246.376 160.387 247.218 161.229 248.257 161.229Z" fill="white"/>
<path d="M241.808 158.632C241.625 158.285 241.343 158.003 241.021 157.78C239.93 157.024 236.5 155.449 235.482 156.414C234.506 157.339 236.385 158.273 236.385 158.273C236.385 158.273 234.721 157.823 234.802 159.062C234.869 160.096 235.929 160.437 235.929 160.437C235.929 160.437 234.153 160.134 234.799 161.616C235.444 163.097 239.117 164.416 240.468 164.374C241.82 164.333 240.863 162.561 240.863 162.561C240.863 162.561 242.314 162.325 242.314 161.521C242.314 160.67 241.172 160.346 241.172 160.346C241.172 160.346 242.466 159.879 241.808 158.632Z" fill="#F48462"/>
<path d="M240.747 160.436C240.72 160.436 240.693 160.431 240.667 160.42L236.305 158.45C236.208 158.406 236.164 158.291 236.208 158.193C236.252 158.095 236.367 158.052 236.465 158.096L240.827 160.066C240.925 160.11 240.968 160.225 240.924 160.323C240.891 160.394 240.82 160.436 240.747 160.436Z" fill="black"/>
<path d="M240.331 162.552C240.305 162.552 240.278 162.547 240.254 162.536L235.852 160.615C235.754 160.572 235.709 160.458 235.753 160.36C235.795 160.262 235.911 160.217 236.008 160.26L240.409 162.182C240.507 162.224 240.552 162.338 240.508 162.437C240.477 162.509 240.406 162.552 240.331 162.552Z" fill="black"/>
<path d="M266.591 160.173C266.591 160.173 264.832 158.892 263.939 158.519C263.094 158.167 262.252 157.961 262.252 157.961L261.941 159.441C261.941 159.441 258.804 159.678 256.508 160.45C254.212 161.221 254.465 162.25 254.465 162.25C254.465 162.25 252.977 162.936 253.48 163.603C253.983 164.27 256.309 164 256.309 164C256.309 164 253.33 164.675 254.411 165.473C255.493 166.271 258.098 166.437 258.098 166.437C258.098 166.437 263.576 168.198 265.703 166.509C267.829 164.82 266.591 160.173 266.591 160.173Z" fill="#F48462"/>
<path d="M261.939 159.607C261.858 159.607 261.787 159.548 261.775 159.465C261.761 159.375 261.824 159.29 261.915 159.277L263.697 159.011C263.789 158.997 263.872 159.06 263.885 159.151C263.899 159.241 263.836 159.326 263.745 159.339L261.963 159.605C261.955 159.606 261.947 159.607 261.939 159.607Z" fill="black"/>
<path d="M254.616 162.28C254.535 162.28 254.463 162.22 254.452 162.138C254.439 162.046 254.502 161.962 254.593 161.95L259.126 161.302C259.217 161.289 259.302 161.352 259.314 161.443C259.327 161.534 259.264 161.618 259.173 161.631L254.64 162.278C254.632 162.279 254.624 162.28 254.616 162.28Z" fill="black"/>
<path d="M256.006 164.194C255.925 164.194 255.854 164.134 255.842 164.052C255.828 163.96 255.891 163.876 255.982 163.863L258.826 163.447C258.924 163.432 259.002 163.496 259.014 163.587C259.028 163.678 258.965 163.762 258.874 163.775L256.031 164.191C256.022 164.193 256.014 164.194 256.006 164.194Z" fill="black"/>
<path d="M273.979 141.712C273.979 141.712 288.353 148.822 287.807 162.114C287.335 173.587 266.575 170.245 265.893 170.253C264.582 170.269 265.109 156.911 265.515 156.536C265.92 156.161 272.365 155.686 272.365 155.686L273.979 141.712Z" fill="#A76FA8"/>
<path d="M267.248 156.466C267.153 156.466 267.07 156.397 267.056 156.3C267.041 156.195 267.114 156.096 267.221 156.081L275.734 154.856C276.126 154.692 279.936 153.202 281.051 154.454C281.309 154.744 281.279 154.961 281.207 155.092C280.776 155.895 276.929 155.41 275.746 155.24L267.275 156.464C267.267 156.465 267.258 156.466 267.248 156.466ZM276.574 154.957C278.626 155.201 280.682 155.252 280.866 154.909C280.88 154.885 280.852 154.813 280.761 154.711C280.108 153.978 277.935 154.502 276.574 154.957Z" fill="#5D2866"/>
<path d="M32.4198 18.7769C32.4198 18.7769 31.6073 12.8697 31.269 12.5464C30.9307 12.2232 23.6774 6.17481 23.3539 4.42261C23.0304 2.67041 24.2914 1.88068 24.2914 1.88068C24.2914 1.88068 43.972 8.84175 44.5013 9.44128C45.0306 10.0408 42.4285 18.6035 42.4285 18.6035L32.4198 18.7769Z" fill="#F48462"/>
<path d="M23.7464 2.42767L44.4431 10.8748L45.4466 8.01159L24.5702 0L23.7464 2.42767Z" fill="black"/>
<path d="M26.1168 7.88056L28.4464 10.0663L31.7876 5.70829L29.4418 4.09186L26.1168 7.88056Z" fill="black"/>
<path d="M52.8209 21.1726C52.8209 21.1726 53.0953 15.2157 52.8209 14.8366C52.5465 14.4575 46.5125 7.19402 46.5125 5.41225C46.5125 3.63048 47.8959 3.0827 47.8959 3.0827C47.8959 3.0827 65.9853 13.4984 66.3968 14.1833C66.8084 14.8689 62.6945 22.8173 62.6945 22.8173L52.8209 21.1726Z" fill="#F48462"/>
<path d="M74.449 35.9441C74.449 35.9441 71.6479 32.9263 59.8549 32.6749C48.0619 32.4235 44.8196 33.3779 44.8196 33.3779L45.2789 15.9213L30.4319 13.9856C30.4319 13.9856 23.5922 31.9201 23.7395 40.3419C23.8868 48.7637 30.8153 51.7809 33.0266 52.2836C35.2379 52.7864 75.4229 52.5068 75.4229 52.5068L74.449 35.9441Z" fill="#FFBA57"/>
<path d="M44.229 34.7505L50.9483 16.709L65.7711 17.9074L61.329 33.2329L44.229 34.7505Z" fill="#FFBA57"/>
<path d="M61.4545 41.241L72.8097 52.2784C72.8097 52.2784 76.6438 53.3988 81.6253 53.5319C86.6062 53.665 90.4834 53.5319 90.4834 53.5319L93.0081 50.4664L96.5645 53.591L108.746 43.0019C108.746 43.0019 102.555 37.8212 94.7419 34.2906C86.929 30.7593 75.4595 30.5779 61.4545 41.241Z" fill="#62A39B"/>
<path d="M95.4039 51.0714C95.2917 51.0714 95.2009 50.9807 95.2009 50.8684L95.2056 39.9358C95.2056 39.8236 95.2964 39.7328 95.4086 39.7328C95.5208 39.7328 95.6116 39.8236 95.6116 39.9358L95.6069 50.8684C95.6062 50.9807 95.5155 51.0714 95.4039 51.0714Z" fill="#5D2866"/>
<path d="M72.0912 49.7001C72.0321 49.7001 71.9735 49.6739 71.9345 49.6262C71.8794 49.559 71.8733 49.4642 71.9191 49.3903C72.1659 48.9924 74.3738 45.4994 75.7472 45.4792C76.0498 45.4907 76.2691 45.609 76.4392 45.8664C76.6147 46.1319 76.6531 46.4222 76.5542 46.728C76.0794 48.1946 72.3233 49.6269 72.1632 49.6867C72.1397 49.6954 72.1154 49.7001 72.0912 49.7001ZM75.7606 45.8852C74.9179 45.8973 73.4269 47.8558 72.6131 49.0663C73.858 48.532 75.877 47.5016 76.1675 46.603C76.2287 46.4148 76.2072 46.2522 76.1002 46.0902C75.9805 45.9087 75.8501 45.8852 75.7606 45.8852Z" fill="#5D2866"/>
<path d="M101.32 49.0001L107.715 43.8994C107.715 43.8994 109.721 46.4057 109.258 51.8707C108.718 58.2611 99.725 60.0187 99.725 60.0187L98.2669 54.7057L101.32 49.0001Z" fill="#F48462"/>
<path d="M80.91 50.3951C80.91 50.3951 80.53 47.6059 82.1831 48.0703C83.8355 48.5354 83.0574 50.9758 83.0574 50.9758L80.91 50.3951Z" fill="#F48462"/>
<path d="M82.2531 30.0278L81.2866 33.7331C81.2866 33.7331 82.3788 35.3933 85.0381 35.6729C87.745 35.9572 87.2393 34.5854 87.2393 34.5854L87.4518 32.6752L83.0003 30.4082L82.2531 30.0278Z" fill="#F48462"/>
<path d="M82.9965 30.425C82.9736 30.55 82.979 30.7059 83.0045 30.8914C83.3724 33.3971 85.8797 34.586 87.2422 34.586L87.4104 32.7888L82.9965 30.425Z" fill="black"/>
<path d="M91.2723 22.9195C91.2723 22.9195 92.0323 29.1621 90.2339 32.0031C88.4355 34.8442 85.7541 33.5107 84.2422 32.4051C82.7304 31.2994 82.2555 30.0278 82.2555 30.0278C82.2555 30.0278 80.515 30.0903 79.8976 28.3059C79.2802 26.5207 80.4363 25.0293 81.4546 24.913C82.4728 24.7967 83.3505 25.7686 83.3505 25.7686L82.99 23.9129C82.99 23.9129 88.9702 16.8174 91.2723 22.9195Z" fill="#F48462"/>
<path d="M88.975 29.8854C88.936 29.8854 88.8963 29.874 88.8614 29.8505C88.7686 29.7873 88.7451 29.6609 88.8076 29.5689C89.4253 28.6615 89.0066 27.3395 89.0025 27.326C88.9683 27.2198 89.0261 27.1049 89.1329 27.0706C89.2391 27.0357 89.3541 27.0941 89.3883 27.2003C89.4085 27.2622 89.8743 28.7233 89.143 29.7974C89.104 29.8545 89.0402 29.8854 88.975 29.8854Z" fill="black"/>
<path d="M82.3782 28.3083C82.3035 28.3083 82.2316 28.2666 82.1959 28.1954L81.1851 26.1501C81.1353 26.05 81.1763 25.9277 81.2772 25.8786C81.3774 25.8282 81.4998 25.8699 81.5489 25.9707L82.5598 28.0159C82.6095 28.1161 82.5685 28.2377 82.4676 28.2875C82.4394 28.3016 82.4084 28.3083 82.3782 28.3083Z" fill="black"/>
<path d="M82.0047 27.5578C81.9745 27.5557 80.8903 27.3951 80.8903 27.3951C80.7794 27.379 80.7027 27.2755 80.7195 27.1646C80.7363 27.0543 80.8399 26.9791 80.9502 26.9939L82.0343 27.1545C82.1446 27.1706 82.222 27.2741 82.2051 27.385C82.1903 27.4852 82.1036 27.5578 82.0047 27.5578Z" fill="black"/>
<path d="M83.3509 25.7677C83.3509 25.7677 83.8055 26.3154 84.4168 25.7952C85.0288 25.275 84.7101 23.0873 84.7101 23.0873C84.7101 23.0873 86.2979 23.9973 87.526 23.7567C88.754 23.5161 89.7481 22.1221 89.7481 22.1221C89.7481 22.1221 90.0285 23.9772 92.5768 23.9798C95.125 23.9825 96.5414 20.9493 94.2527 19.5405C91.9641 18.1318 90.2673 18.8147 90.2673 18.8147C90.2673 18.8147 90.658 16.4179 87.2341 16.6115C84.1149 16.7876 82.5647 20.1501 82.5647 20.1501C82.5647 20.1501 80.8577 19.7126 79.9734 21.4426C79.0883 23.1726 80.8234 25.152 80.8234 25.152C80.8234 25.152 82.2587 24.8126 83.3509 25.7677Z" fill="#5D2866"/>
<path d="M87.1056 27.0653C87.0942 27.0653 87.0827 27.0639 87.0706 27.0619C86.9597 27.0431 86.8865 26.9382 86.9053 26.8273L87.0888 25.7607C87.1076 25.6505 87.2111 25.5739 87.3234 25.5954C87.4336 25.6142 87.5075 25.719 87.4887 25.8299L87.3052 26.8966C87.2884 26.9954 87.2024 27.0653 87.1056 27.0653Z" fill="black"/>
<path d="M90.2248 27.7552C90.083 27.7363 90.0071 27.6322 90.0239 27.5219L90.1872 26.4519C90.204 26.341 90.3095 26.2637 90.4184 26.2819C90.5293 26.2987 90.6052 26.4022 90.5884 26.5131L90.4251 27.5831C90.4103 27.6832 90.3236 27.7552 90.2248 27.7552Z" fill="black"/>
<path d="M86.8184 25.0436C86.7928 25.0436 86.7672 25.0389 86.7424 25.0288C86.6381 24.9865 86.5883 24.8689 86.63 24.7647C86.9542 23.9588 87.9469 24.0697 87.9879 24.0738C88.0989 24.0872 88.1782 24.1873 88.1648 24.2989C88.152 24.4105 88.0491 24.4905 87.9395 24.477C87.9099 24.4737 87.2138 24.4004 87.0067 24.9166C86.9751 24.9959 86.8984 25.0436 86.8184 25.0436Z" fill="black"/>
<path d="M90.9627 25.6439C90.8538 25.6439 90.7643 25.5578 90.7596 25.4483C90.7569 25.4046 90.7159 25.041 90.0985 25.0282C89.9862 25.0262 89.8974 24.9334 89.9001 24.8212C89.9021 24.7103 89.9929 24.6229 90.1032 24.6229C90.9291 24.6397 91.1591 25.1626 91.1658 25.4369C91.1685 25.5484 91.0804 25.6419 90.9681 25.6445C90.9661 25.6439 90.9647 25.6439 90.9627 25.6439Z" fill="black"/>
<path d="M87.595 31.3837C87.5628 31.3837 87.5305 31.3757 87.4995 31.3596C87.4679 31.3428 86.7201 30.9355 86.7967 30.1672C86.8082 30.0557 86.9097 29.9743 87.0187 29.9851C87.1303 29.9965 87.2117 30.0953 87.2009 30.2069C87.1512 30.7076 87.6852 30.998 87.6905 31.0013C87.7894 31.0544 87.8271 31.1767 87.7746 31.2762C87.7383 31.3448 87.6677 31.3837 87.595 31.3837Z" fill="black"/>
<path d="M47.2649 3.5225L66.0839 15.5836L67.5904 12.9496L48.5158 1.28436L47.2649 3.5225Z" fill="black"/>
<path d="M48.6028 9.31416L50.4967 11.8863L54.5736 8.20719L52.5607 6.1922L48.6028 9.31416Z" fill="black"/>
<path d="M43.0947 38.3093C42.9811 38.31 42.8493 38.2777 42.7067 38.187C42.4814 38.0438 42.3435 37.8234 42.3079 37.5498C42.1431 36.2883 44.1856 34.0327 44.4223 33.7773C44.4358 33.7631 44.4486 33.7524 44.4627 33.7436C44.4822 33.7309 44.5037 33.7221 44.5266 33.7168C44.7801 33.6529 53.8224 31.396 61.2621 32.3974C61.373 32.4122 61.4511 32.5144 61.4363 32.6259C61.4215 32.7375 61.3179 32.8161 61.2076 32.8C54.2804 31.8685 45.9261 33.7954 44.7599 34.0777C44.6772 34.8399 44.2986 37.7938 43.3745 38.2441C43.2999 38.2797 43.2057 38.3093 43.0947 38.3093ZM44.2925 34.5455C43.5958 35.3876 42.6146 36.7614 42.7101 37.4981C42.7302 37.6547 42.7988 37.7642 42.9246 37.8449C43.0557 37.9282 43.1385 37.9081 43.1949 37.8792C43.7101 37.6278 44.1049 35.9052 44.2925 34.5455Z" fill="white"/>
<path d="M63.118 42.8591C63.118 42.8591 56.365 51.9642 63.3439 57.0205C70.3222 62.0768 80.6067 61.2716 80.6067 61.2716L82.2154 53.5914L70.1769 48.3025L63.118 42.8591Z" fill="#F48462"/>
<path d="M82.382 57.6603C82.382 57.6603 83.6807 61.2568 80.6105 61.2722C77.5404 61.2877 77.8686 57.6603 77.8686 57.6603L80.9273 56.7341L82.382 57.6603Z" fill="#F48462"/>
<path d="M99.6424 57.2019C99.6424 57.2019 97.5918 60.3299 100.662 60.3454C103.732 60.3608 104.524 56.1191 104.524 56.1191L101.098 56.2757L99.6424 57.2019Z" fill="#F48462"/>
<path d="M85.4695 35.8885C85.331 35.8885 85.1851 35.8844 85.0297 35.875C82.1297 35.7036 80.755 33.485 80.6979 33.3902C80.64 33.2941 80.6703 33.1698 80.7665 33.112C80.8626 33.0535 80.9871 33.0844 81.0456 33.1798C81.0584 33.2014 82.3725 35.3111 85.0539 35.4697C87.1758 35.5974 87.4118 34.7707 87.4139 34.762C87.4414 34.6551 87.5517 34.5893 87.6566 34.6121C87.7642 34.637 87.8328 34.7398 87.8107 34.848C87.8012 34.8937 87.5726 35.8885 85.4695 35.8885Z" fill="#5D2866"/>
<path d="M98.5768 59.3467H83.2281C82.6834 59.3467 82.2415 58.9051 82.2415 58.3607V47.9328C82.2415 47.3884 82.6834 46.9468 83.2281 46.9468H98.5768C99.1216 46.9468 99.5635 47.3884 99.5635 47.9328V58.3607C99.5641 58.9051 99.1223 59.3467 98.5768 59.3467Z" fill="white"/>
<path d="M99.7251 59.3467H84.3111C83.765 59.3467 83.3225 58.9044 83.3225 58.3587V47.9348C83.3225 47.3891 83.765 46.9468 84.3111 46.9468H99.7251C100.271 46.9468 100.714 47.3891 100.714 47.9348V58.3587C100.714 58.9044 100.271 59.3467 99.7251 59.3467Z" fill="black"/>
<path d="M98.3494 52.8315C98.5404 52.4685 98.8363 52.1735 99.1739 51.9403C100.316 51.1492 103.907 49.4998 104.973 50.5107C105.993 51.4785 104.027 52.4564 104.027 52.4564C104.027 52.4564 105.769 51.9853 105.685 53.2818C105.614 54.3646 104.504 54.7215 104.504 54.7215C104.504 54.7215 106.363 54.4042 105.687 55.9555C105.012 57.506 101.167 58.8866 99.7523 58.8435C98.3373 58.8005 99.3394 56.9462 99.3394 56.9462C99.3394 56.9462 97.8194 56.6988 97.8201 55.8567C97.8201 54.9654 99.0152 54.6274 99.0152 54.6274C99.0152 54.6274 97.6607 54.1381 98.3494 52.8315Z" fill="#F48462"/>
<path d="M99.4642 54.7209C99.3868 54.7209 99.3128 54.6766 99.2792 54.6013C99.2328 54.4991 99.2785 54.3788 99.3808 54.3331L103.947 52.2717C104.048 52.2254 104.17 52.2711 104.216 52.3732C104.262 52.4754 104.216 52.5957 104.114 52.6414L99.5475 54.7028C99.5206 54.7155 99.4924 54.7209 99.4642 54.7209Z" fill="black"/>
<path d="M99.9013 56.9364C99.8233 56.9364 99.7487 56.8913 99.7157 56.8147C99.6706 56.7119 99.7177 56.5922 99.8199 56.5479L104.428 54.5356C104.53 54.4905 104.65 54.5369 104.695 54.6398C104.74 54.7426 104.693 54.8622 104.59 54.9066L99.9827 56.9189C99.9558 56.9317 99.9282 56.9364 99.9013 56.9364Z" fill="black"/>
<path d="M85.35 52.8315C85.159 52.4685 84.8631 52.1735 84.5255 51.9403C83.3835 51.1492 79.7928 49.4998 78.7268 50.5107C77.7059 51.4785 79.6724 52.4564 79.6724 52.4564C79.6724 52.4564 77.9305 51.9853 78.0146 53.2818C78.0852 54.3646 79.1956 54.7215 79.1956 54.7215C79.1956 54.7215 77.3367 54.4042 78.0119 55.9555C78.6871 57.506 82.5321 58.8866 83.9471 58.8435C85.3621 58.8005 84.36 56.9462 84.36 56.9462C84.36 56.9462 85.8793 56.6988 85.8793 55.8567C85.8793 54.9654 84.6842 54.6274 84.6842 54.6274C84.6842 54.6274 86.0387 54.1381 85.35 52.8315Z" fill="#F48462"/>
<path d="M84.2415 54.7209C84.2132 54.7209 84.185 54.7155 84.1581 54.7028L79.5915 52.6414C79.4893 52.5957 79.4435 52.4754 79.49 52.3732C79.5357 52.2711 79.6574 52.2254 79.7583 52.2717L84.3248 54.3331C84.4271 54.3788 84.4728 54.4991 84.4264 54.6013C84.3928 54.6766 84.3188 54.7209 84.2415 54.7209Z" fill="black"/>
<path d="M83.803 56.9364C83.7761 56.9364 83.7478 56.931 83.7216 56.9196L79.114 54.9073C79.0118 54.8629 78.9647 54.7426 79.0098 54.6405C79.0542 54.5376 79.1746 54.4906 79.2768 54.5363L83.8837 56.5486C83.9859 56.5936 84.033 56.7133 83.9879 56.8154C83.9563 56.8914 83.8817 56.9364 83.803 56.9364Z" fill="black"/>
<path d="M114.102 163.269C114.102 163.269 114.192 148.106 120.067 146.649C125.941 145.192 126.894 149.439 126.894 149.439C126.894 149.439 128.858 149.272 129.316 152.582C129.774 155.893 128.775 164.595 128.775 164.595L114.102 163.269Z" fill="black"/>
<path d="M112.861 164.328C112.861 164.328 111.52 159.452 121.706 159.068C131.891 158.682 130.166 164.328 130.166 164.328L121.104 166.677L112.861 164.328Z" fill="#A76FA8"/>
<path d="M100.858 179.537C100.858 179.537 107.592 164.545 114.592 162.533C121.592 160.52 113.601 181.168 113.601 181.168L100.858 179.537Z" fill="#FCAF49"/>
<path d="M127.44 163.27C127.44 163.27 139.372 165.48 142.29 176.361C145.207 187.242 128.817 192.445 128.817 192.445L127.44 163.27Z" fill="#FCAF49"/>
<path d="M134.44 210.542L134.065 215.266L144.033 216.039V211.315L134.44 210.542Z" fill="white"/>
<path d="M128.944 191.121C128.944 191.121 141.675 176.859 153.996 179.986C166.317 183.113 148.246 213.033 148.246 213.033H130.326L130.94 208.334L110.58 208.809L113.175 185.709L128.944 191.121Z" fill="#286C7C"/>
<path d="M114.934 203.894H120.953L118.34 214.015H114.507L114.934 203.894Z" fill="white"/>
<path d="M103.421 191.648C103.421 191.648 80.9259 197.574 79.6117 206.162C78.2982 214.751 94.3895 218.488 101.943 219.024C109.496 219.561 115.916 219.024 115.916 219.024V188.526L103.421 191.648Z" fill="#286C7C"/>
<path d="M108.42 191.648C108.42 191.648 109.318 164.661 114.591 162.533C120.357 160.205 130.095 163.049 131.92 166.656C133.746 170.263 128.944 191.122 128.944 191.122C128.944 191.122 118.231 193.709 108.42 191.648Z" fill="#FCAF49"/>
<path d="M124.561 158.505L124.464 162.91C124.464 162.91 123.641 164.158 121.058 164.31C119.134 164.424 118.469 163.975 118.469 163.975L118.786 161.75L119.098 159.581L123.777 158.661L124.561 158.505Z" fill="#F48462"/>
<path d="M123.776 158.66C123.762 158.781 123.713 158.921 123.639 159.082C122.603 161.261 119.897 161.675 118.786 161.749L119.098 159.58L123.776 158.66Z" fill="black"/>
<path d="M118.332 149.52C118.332 149.52 115.897 154.991 116.74 158.079C117.584 161.167 120.397 160.701 122.083 160.116C123.768 159.531 124.556 158.506 124.556 158.506C124.556 158.506 126.123 159.049 127.183 157.597C128.243 156.145 127.608 154.464 126.713 154.074C125.819 153.684 124.748 154.324 124.748 154.324L125.595 152.735C125.595 152.735 122.133 144.608 118.332 149.52Z" fill="#F48462"/>
<path d="M118.719 156.526C118.637 156.536 118.554 156.493 118.518 156.415C118.002 155.291 118.67 153.992 118.698 153.938C118.748 153.844 118.865 153.807 118.959 153.857C119.054 153.906 119.09 154.023 119.041 154.117C119.035 154.129 118.434 155.304 118.869 156.253C118.914 156.35 118.871 156.465 118.774 156.509C118.755 156.518 118.737 156.523 118.719 156.526Z" fill="black"/>
<path d="M124.984 156.914C124.937 156.914 124.889 156.897 124.852 156.862C124.775 156.789 124.771 156.666 124.844 156.588L126.335 155.009C126.408 154.932 126.531 154.928 126.608 155.001C126.686 155.074 126.689 155.196 126.616 155.274L125.125 156.853C125.087 156.894 125.036 156.914 124.984 156.914Z" fill="black"/>
<path d="M126.563 156.492C126.534 156.49 125.503 156.334 125.503 156.334C125.397 156.318 125.325 156.219 125.34 156.114C125.356 156.009 125.452 155.935 125.56 155.951L126.592 156.107C126.698 156.123 126.77 156.222 126.754 156.327C126.74 156.422 126.658 156.492 126.563 156.492Z" fill="black"/>
<path d="M120.284 158.199C119.715 158.199 119.257 157.739 119.233 157.714C119.186 157.667 119.168 157.598 119.183 157.534C119.199 157.468 119.247 157.417 119.31 157.395L121.456 156.682C121.525 156.661 121.6 156.677 121.651 156.726C121.703 156.776 121.723 156.851 121.703 156.92C121.692 156.953 121.458 157.733 120.746 158.088C120.589 158.167 120.432 158.199 120.284 158.199ZM119.776 157.648C119.985 157.774 120.285 157.886 120.573 157.743C120.845 157.608 121.031 157.385 121.152 157.192L119.776 157.648Z" fill="black"/>
<path d="M121.031 154.965C120.9 154.949 120.825 154.853 120.839 154.747L120.97 153.725C120.983 153.619 121.075 153.545 121.186 153.557C121.292 153.571 121.367 153.668 121.353 153.774L121.222 154.796C121.209 154.893 121.127 154.965 121.031 154.965Z" fill="black"/>
<path d="M117.994 154.721C117.861 154.703 117.787 154.605 117.803 154.499L117.953 153.48C117.968 153.375 118.063 153.301 118.173 153.317C118.278 153.332 118.351 153.43 118.335 153.537L118.185 154.556C118.172 154.652 118.089 154.721 117.994 154.721Z" fill="black"/>
<path d="M121.984 153.005C121.914 153.005 121.846 152.967 121.811 152.9C121.569 152.43 120.916 152.56 120.887 152.566C120.784 152.59 120.681 152.522 120.659 152.417C120.637 152.313 120.702 152.211 120.807 152.189C120.847 152.181 121.777 151.989 122.155 152.724C122.204 152.819 122.167 152.935 122.072 152.984C122.043 152.998 122.013 153.005 121.984 153.005Z" fill="black"/>
<path d="M119.019 152.373C118.958 152.373 118.897 152.343 118.86 152.289C118.768 152.156 118.663 152.083 118.536 152.067C118.275 152.042 117.977 152.243 117.884 152.325C117.803 152.394 117.681 152.388 117.611 152.307C117.54 152.227 117.547 152.105 117.627 152.035C117.646 152.018 118.1 151.623 118.583 151.683C118.823 151.713 119.023 151.843 119.179 152.07C119.239 152.159 119.217 152.279 119.129 152.339C119.095 152.362 119.057 152.373 119.019 152.373Z" fill="black"/>
<path d="M116.916 203.568C116.916 203.568 127.865 202.958 128.488 203.549C129.111 204.14 128.738 215.356 128.738 215.356C128.738 215.356 130.11 228.001 129.165 229.216C128.674 229.848 127.647 230.476 126.773 230.934C125.784 231.453 124.55 231.223 123.849 230.354C123.234 229.592 122.584 228.443 122.255 226.792C121.527 223.136 121.527 223.136 121.527 223.136L116.691 214.776L116.916 203.568Z" fill="#FC8A5E"/>
<path d="M133.361 215.176C133.361 215.176 132.88 223.519 133.369 224.161C133.858 224.803 148.708 231.294 149.269 231.535C149.829 231.776 154.822 231.913 156.066 231.999C157.311 232.083 157.217 227.816 156.439 226.546C155.66 225.276 152.657 224.174 152.657 224.174L144.479 214.521L133.44 214.022L133.361 215.176Z" fill="#FC8A5E"/>
<path d="M130.941 208.528C130.918 208.528 130.896 208.524 130.873 208.516C130.773 208.479 130.723 208.367 130.76 208.267C130.809 208.135 135.728 194.995 141.517 189.264C141.593 189.188 141.716 189.189 141.791 189.264C141.866 189.34 141.865 189.462 141.79 189.537C136.062 195.209 131.171 208.27 131.122 208.401C131.093 208.479 131.019 208.528 130.941 208.528Z" fill="#FFBA57"/>
<path d="M114.938 204.087C114.923 204.087 114.907 204.085 114.891 204.081C114.78 204.053 103.573 201.272 91.6275 200.554C91.5213 200.548 91.4399 200.457 91.4466 200.35C91.4526 200.244 91.5515 200.16 91.6511 200.169C103.634 200.889 114.874 203.678 114.986 203.706C115.089 203.732 115.152 203.838 115.126 203.94C115.104 204.028 115.025 204.087 114.938 204.087Z" fill="#FFBA57"/>
<path d="M109.438 178.834C109.341 178.834 109.257 178.762 109.245 178.664C108.991 176.514 110.653 170.081 110.724 169.809C110.751 169.705 110.857 169.643 110.96 169.669C111.064 169.696 111.127 169.802 111.1 169.906C111.083 169.973 109.385 176.54 109.631 178.618C109.644 178.724 109.568 178.821 109.461 178.833C109.453 178.834 109.445 178.834 109.438 178.834Z" fill="#5D2866"/>
<path d="M98.7077 200.955C98.2611 200.924 94.4492 200.623 93.8109 199.382C93.7073 199.181 93.6367 198.856 93.8862 198.45C93.973 198.309 94.1136 198.217 94.2931 198.185C95.4398 197.99 98.4837 200.34 98.8267 200.609C98.8933 200.662 98.9182 200.751 98.8872 200.831C98.859 200.906 98.7877 200.955 98.7077 200.955ZM94.4673 198.557C94.4297 198.557 94.3947 198.559 94.3617 198.565C94.2696 198.582 94.2353 198.62 94.2158 198.652C94.0476 198.926 94.1008 199.099 94.1559 199.205C94.5386 199.949 96.7015 200.348 98.0493 200.504C96.9873 199.725 95.2313 198.557 94.4673 198.557Z" fill="#FFBA57"/>
<path d="M118.07 153.658C118.043 153.658 118.015 153.652 117.99 153.641L117.483 153.411C117.386 153.367 117.343 153.252 117.387 153.154C117.431 153.055 117.546 153.013 117.644 153.057L118.15 153.287C118.248 153.331 118.291 153.446 118.247 153.544C118.214 153.615 118.143 153.658 118.07 153.658Z" fill="black"/>
<path d="M101.302 191.231H121.161C121.865 191.231 122.435 190.661 122.435 189.958V176.528C122.435 175.825 121.865 175.255 121.161 175.255H101.302C100.598 175.255 100.028 175.825 100.028 176.528V189.958C100.028 190.661 100.598 191.231 101.302 191.231Z" fill="#8B558E"/>
<path d="M102.776 191.231H122.551C123.253 191.231 123.823 190.662 123.823 189.961V176.525C123.823 175.823 123.254 175.255 122.551 175.255H102.776C102.073 175.255 101.504 175.823 101.504 176.525V189.961C101.504 190.662 102.073 191.231 102.776 191.231Z" fill="black"/>
<path d="M111.793 185.123C112.832 185.123 113.674 184.282 113.674 183.243C113.674 182.205 112.832 181.363 111.793 181.363C110.754 181.363 109.912 182.205 109.912 183.243C109.912 184.282 110.754 185.123 111.793 185.123Z" fill="white"/>
<path d="M121.145 153.893C121.11 153.893 121.077 153.884 121.046 153.866L120.555 153.574C120.463 153.52 120.432 153.401 120.487 153.309C120.542 153.215 120.66 153.187 120.753 153.241L121.244 153.533C121.336 153.587 121.366 153.706 121.311 153.799C121.276 153.86 121.211 153.893 121.145 153.893Z" fill="black"/>
<path d="M128.285 182.53C128.285 182.53 124.343 181.247 123.822 181.081C123.822 181.081 123.766 182.499 123.939 182.749C124.112 182.999 116.348 184.196 116.368 184.945C116.388 185.695 117.109 185.861 117.109 185.861C117.109 185.861 115.555 186.195 115.972 186.944C116.389 187.693 117.109 187.724 117.109 187.724C117.109 187.724 115.58 188.466 117.109 189.412C118.638 190.358 126.139 190.941 128.544 188.543C130.312 186.78 128.285 182.53 128.285 182.53Z" fill="#F48462"/>
<path d="M124.752 154.322C124.752 154.322 122.177 153.833 121.096 152.159C120.106 150.628 119.771 148.879 119.771 148.879C119.771 148.879 119.218 149.152 118.386 150.057C117.554 150.962 117.522 151.677 117.522 151.677C117.522 151.677 116.606 148.356 119.939 147.232C123.272 146.107 125.992 148.398 126.757 150.479C127.522 152.561 124.752 154.322 124.752 154.322Z" fill="black"/>
<path d="M125.954 180.23L126.153 190.195C126.153 190.195 127.481 191.31 132.516 187.701C139.013 183.044 135.152 178.735 135.152 178.735L132.788 177.049L125.954 180.23Z" fill="#FCAF49"/>
<path d="M117.109 186.054C117.013 186.054 116.929 185.982 116.917 185.883C116.904 185.777 116.981 185.68 117.087 185.668L121.526 185.156C121.641 185.136 121.729 185.22 121.741 185.326C121.753 185.432 121.677 185.529 121.57 185.54L117.132 186.053C117.124 186.054 117.117 186.054 117.109 186.054Z" fill="black"/>
<path d="M121.548 187.917H117.109C117.002 187.917 116.916 187.83 116.916 187.723C116.916 187.616 117.002 187.53 117.109 187.53H121.548C121.655 187.53 121.742 187.616 121.742 187.723C121.742 187.831 121.655 187.917 121.548 187.917Z" fill="black"/>
<path d="M112.857 163.124C112.857 163.124 114.611 164.426 116.567 165.385C118.523 166.344 119.772 166.676 119.772 166.676C119.772 166.676 124.568 165.872 126.67 165.233C128.772 164.595 130.163 164.04 130.163 164.04L126.05 160.542L120.953 162.862L117.407 161.416C117.407 161.416 113.674 162.236 112.857 163.124Z" fill="#A76FA8"/>
<path d="M123.094 170.201C123.011 170.201 122.935 170.147 122.909 170.064L121.891 166.733C121.859 166.631 121.917 166.523 122.019 166.492C122.125 166.458 122.23 166.519 122.261 166.62L123.279 169.951C123.311 170.053 123.253 170.162 123.15 170.192C123.131 170.198 123.112 170.201 123.094 170.201Z" fill="#5D2866"/>
<path d="M116.791 170.201C116.774 170.201 116.756 170.199 116.739 170.194C116.636 170.165 116.575 170.058 116.605 169.955L117.544 166.624C117.573 166.521 117.682 166.459 117.783 166.49C117.886 166.519 117.947 166.626 117.917 166.729L116.977 170.06C116.953 170.145 116.876 170.201 116.791 170.201Z" fill="#5D2866"/>
<path d="M124.561 180.108C124.491 180.108 124.422 180.069 124.388 180.002C124.34 179.906 124.378 179.79 124.474 179.741C124.728 179.614 130.73 176.616 133.844 176.393C133.944 176.38 134.043 176.465 134.051 176.573C134.059 176.68 133.979 176.772 133.871 176.78C130.835 176.997 124.71 180.058 124.649 180.089C124.62 180.102 124.591 180.108 124.561 180.108Z" fill="#5D2866"/>
<path d="M128.499 178.337C128.458 178.337 128.418 178.324 128.384 178.299C128.313 178.247 128.286 178.154 128.318 178.073C128.468 177.689 129.83 174.345 131.42 174.386C131.741 174.398 131.857 174.547 131.898 174.67C132.137 175.4 129.684 177.448 128.619 178.295C128.584 178.323 128.541 178.337 128.499 178.337ZM131.378 174.772C130.491 174.772 129.538 176.358 128.998 177.485C130.49 176.237 131.602 175.067 131.53 174.792C131.529 174.796 131.504 174.777 131.406 174.773C131.397 174.772 131.388 174.772 131.378 174.772Z" fill="#5D2866"/>
<path d="M148.264 219.456H144.51C144.403 219.456 144.316 219.369 144.316 219.262C144.316 219.155 144.403 219.069 144.51 219.069H148.264C148.371 219.069 148.458 219.155 148.458 219.262C148.458 219.369 148.371 219.456 148.264 219.456Z" fill="#5D2866"/>
<path d="M150.744 222.11H145.467C145.36 222.11 145.273 222.024 145.273 221.917C145.273 221.81 145.36 221.723 145.467 221.723H150.744C150.851 221.723 150.937 221.81 150.937 221.917C150.937 222.024 150.851 222.11 150.744 222.11Z" fill="#5D2866"/>
<path d="M118.352 217.845C118.337 217.845 118.322 217.843 118.306 217.84C118.202 217.814 118.139 217.709 118.165 217.605L118.833 214.875C118.859 214.772 118.963 214.71 119.067 214.733C119.171 214.758 119.235 214.863 119.209 214.967L118.54 217.697C118.518 217.786 118.44 217.845 118.352 217.845Z" fill="#5D2866"/>
<path d="M120.185 220.748C120.171 220.748 120.157 220.746 120.143 220.743C120.038 220.719 119.972 220.616 119.996 220.512L120.892 216.509C120.916 216.404 121.022 216.339 121.124 216.361C121.229 216.385 121.294 216.488 121.271 216.593L120.374 220.596C120.354 220.687 120.274 220.748 120.185 220.748Z" fill="#5D2866"/>
<path d="M103.751 183.602C103.568 183.255 103.286 182.974 102.963 182.751C101.873 181.995 98.442 180.42 97.4244 181.385C96.4492 182.31 98.3276 183.244 98.3276 183.244C98.3276 183.244 96.6631 182.794 96.7438 184.032C96.811 185.067 97.8716 185.408 97.8716 185.408C97.8716 185.408 96.0954 185.104 96.7411 186.586C97.3861 188.067 101.059 189.386 102.411 189.344C103.762 189.303 102.805 187.531 102.805 187.531C102.805 187.531 104.256 187.295 104.256 186.491C104.256 185.64 103.114 185.316 103.114 185.316C103.114 185.316 104.409 184.85 103.751 183.602Z" fill="#F48462"/>
<path d="M102.689 185.406C102.662 185.406 102.635 185.401 102.609 185.389L98.2465 183.42C98.149 183.376 98.1053 183.261 98.1497 183.163C98.1941 183.065 98.3091 183.023 98.4059 183.066L102.768 185.036C102.866 185.079 102.909 185.194 102.865 185.292C102.833 185.364 102.762 185.406 102.689 185.406Z" fill="black"/>
<path d="M102.276 187.523C102.25 187.523 102.223 187.518 102.198 187.507L97.7974 185.585C97.6992 185.542 97.6541 185.428 97.6972 185.33C97.7402 185.232 97.8552 185.187 97.9521 185.231L102.353 187.153C102.451 187.196 102.496 187.31 102.453 187.408C102.422 187.48 102.35 187.523 102.276 187.523Z" fill="black"/>
<path d="M80.478 143.219H30.488C28.5532 143.219 26.9848 141.652 26.9848 139.718V125.32C26.9848 123.387 28.5532 121.819 30.488 121.819H80.478C82.4129 121.819 83.9812 123.387 83.9812 125.32V139.718C83.9812 141.651 82.4129 143.219 80.478 143.219Z" fill="#8B558E"/>
<path d="M275.388 119.762H305.895C307.303 119.762 308.444 118.622 308.444 117.215V101.774C308.444 100.367 307.303 99.2264 305.895 99.2264H275.388C273.98 99.2264 272.839 100.367 272.839 101.774V117.215C272.839 118.622 273.98 119.762 275.388 119.762Z" fill="#9BCCC7"/>
<path d="M282.721 117.193L279.198 126.443L290.2 118.174L282.721 117.193Z" fill="#9BCCC7"/>
<path d="M173.965 91.5019L174.426 96.6368H184.296V90.8217L173.965 91.5019Z" fill="#FFA98F"/>
<path d="M191.572 93.8746L192.569 99.0237L203.432 96.4495L201.534 90.8219L191.572 93.8746Z" fill="#FFA98F"/>
<path d="M203.659 23.5873C203.659 23.5873 206.251 21.2114 209.939 23.1511C213.628 25.0901 213.169 30.6115 213.169 30.6115C213.169 30.6115 217.047 31.984 217.366 36.7264C217.684 41.4689 212.239 43.3131 212.239 43.3131L202.967 41.8533C202.967 41.8533 201.116 39.0956 201.129 38.9941C201.143 38.892 200.762 27.4701 200.762 27.4701L203.659 23.5873Z" fill="black"/>
<path d="M183.618 62.5443C183.618 62.5443 185.556 44.1763 192.764 41.0179C199.972 37.8603 211.632 41.108 211.632 41.108L211.108 65.6751L183.618 62.5443Z" fill="#3F9E97"/>
<path d="M173.841 96.1797C173.841 96.1797 172.29 101.227 171.711 101.892C171.132 102.556 164.618 108.378 163.772 110.432C162.924 112.486 164.024 115.337 164.554 115.422C165.084 115.507 190.011 104.518 190.011 104.518L185.098 92.3392L173.841 96.1797Z" fill="#1F5E68"/>
<path d="M189.628 61.5133C189.628 61.5133 175.355 58.0424 171.441 64.0694C167.527 70.0964 173 93.0981 173 93.0981H186.143L189.628 61.5133Z" fill="#8B558E"/>
<path d="M172.396 99.8065C172.396 99.8065 177.603 102.311 176.944 102.978C176.285 103.646 169.099 105.502 168.964 104.706C168.829 103.91 171.562 100.094 172.396 99.8065Z" fill="#FFBA57"/>
<path d="M221.94 66.7401C221.94 66.7401 224.912 80.541 218.956 82.763C213 84.9851 199.271 82.3504 199.271 82.3504L204.841 92.1736L186.927 97.4773C186.927 97.4773 172.05 70.6317 181.105 63.4769C190.159 56.3221 209.219 66.7401 209.219 66.7401H221.94Z" fill="#A76FA8"/>
<path d="M191.536 98.7959C191.536 98.7959 190.78 104.317 189.734 105.011C188.687 105.705 184.25 109.266 181.967 112.295C180.053 114.835 182.388 115.894 182.388 115.894L197.463 114.135L209.311 103.11L203.526 93.7529L191.536 98.7959Z" fill="#286C7C"/>
<path d="M190.509 102.205C190.509 102.205 195.706 104.73 195.044 105.395C194.382 106.06 187.189 107.888 187.057 107.091C186.925 106.295 189.674 102.489 190.509 102.205Z" fill="#FFBA57"/>
<path d="M202.539 35.4637L203.144 39.3311C203.144 39.3311 202.528 40.5866 199.998 41.2359C198.113 41.7198 197.383 41.4603 197.383 41.4603L197.343 39.4534L197.306 37.4955L201.788 35.7561L202.539 35.4637Z" fill="#FFA98F"/>
<path d="M201.791 35.7673C201.8 35.889 201.779 36.0382 201.735 36.2123C201.126 38.57 198.521 39.4982 197.433 39.7852L197.327 37.574L201.791 35.7673Z" fill="black"/>
<path d="M194.647 27.7409C194.647 27.7409 193.278 33.632 194.706 36.5328C196.134 39.4343 198.835 38.4342 200.394 37.5322C201.953 36.6303 202.538 35.4628 202.538 35.4628C202.538 35.4628 204.196 35.7014 204.969 34.0581C205.743 32.4148 204.791 30.8696 203.829 30.6538C202.867 30.4381 201.928 31.2769 201.928 31.2769L202.463 29.5395C202.463 29.5395 197.475 22.1422 194.647 27.7409Z" fill="#FFA98F"/>
<path d="M196.151 34.6097C196.092 34.6097 196.035 34.5781 196.005 34.5217C195.423 33.4322 196.013 32.0953 196.038 32.0389C196.076 31.9555 196.174 31.9179 196.258 31.9555C196.341 31.9932 196.379 32.0913 196.341 32.1746C196.335 32.1874 195.793 33.4207 196.297 34.3651C196.341 34.4457 196.31 34.5465 196.229 34.5895C196.205 34.6037 196.178 34.6097 196.151 34.6097Z" fill="black"/>
<path d="M202.623 33.7783C202.592 33.7783 202.561 33.7702 202.533 33.7521C202.456 33.703 202.433 33.6002 202.482 33.5229L203.659 31.6712C203.709 31.5932 203.812 31.5711 203.889 31.6201C203.966 31.6692 203.989 31.772 203.94 31.8493L202.763 33.701C202.731 33.7514 202.677 33.7783 202.623 33.7783Z" fill="black"/>
<path d="M203.055 33.0997C202.967 33.0997 202.893 33.0298 202.889 32.9404C202.886 32.849 202.957 32.7717 203.049 32.7677L204.101 32.7253C204.197 32.728 204.27 32.7932 204.274 32.8846C204.278 32.976 204.206 33.0533 204.115 33.0574L203.062 33.0997C203.06 33.0997 203.057 33.0997 203.055 33.0997Z" fill="black"/>
<path d="M194.874 59.4156C194.816 59.4156 194.757 59.3894 194.72 59.339C194.707 59.3222 193.443 57.6338 192.438 55.1436C190.886 51.2965 192.367 45.7596 192.43 45.5257C192.459 45.4222 192.566 45.361 192.668 45.3893C192.771 45.4175 192.833 45.5244 192.804 45.6272C192.79 45.6837 191.295 51.2729 192.797 54.9978C193.781 57.4382 195.016 59.0883 195.028 59.1044C195.093 59.1904 195.075 59.3114 194.99 59.3759C194.957 59.4028 194.915 59.4156 194.874 59.4156Z" fill="white"/>
<path d="M198.021 35.9685C197.551 35.9685 197.142 35.6909 197.118 35.6741C197.071 35.6418 197.044 35.5867 197.046 35.5296C197.048 35.4724 197.081 35.4207 197.13 35.3925L199.123 34.2747C199.178 34.2452 199.244 34.2465 199.295 34.2801C199.347 34.3137 199.376 34.3735 199.37 34.4347C199.367 34.469 199.284 35.2742 198.656 35.7554C198.452 35.914 198.231 35.9685 198.021 35.9685ZM197.561 35.5329C197.8 35.6324 198.163 35.7157 198.455 35.4933C198.731 35.2816 198.88 34.9811 198.958 34.7499L197.561 35.5329Z" fill="black"/>
<path d="M198.801 29.9791C198.752 29.9791 198.703 29.9576 198.671 29.916C198.327 29.4784 197.684 29.7412 197.657 29.752C197.571 29.7876 197.475 29.7473 197.44 29.6639C197.404 29.5792 197.443 29.4825 197.528 29.4468C197.564 29.4307 198.43 29.0711 198.933 29.711C198.989 29.7829 198.976 29.8877 198.904 29.9442C198.874 29.9677 198.838 29.9791 198.801 29.9791Z" fill="black"/>
<path d="M194.484 30.1612C194.448 30.1612 194.413 30.1498 194.382 30.1262C194.31 30.0698 194.296 29.9663 194.352 29.8937C194.367 29.8742 194.733 29.4057 195.211 29.3741C195.441 29.3573 195.663 29.4461 195.854 29.6356C195.919 29.7001 195.92 29.8056 195.855 29.8708C195.79 29.936 195.685 29.9367 195.62 29.8722C195.497 29.7505 195.372 29.6968 195.234 29.7055C194.907 29.727 194.618 30.0933 194.615 30.0973C194.583 30.139 194.534 30.1612 194.484 30.1612Z" fill="black"/>
<path d="M195.172 32.444C195.084 32.444 195.01 32.3741 195.006 32.2854L194.963 31.3182L194.541 30.962C194.471 30.9028 194.462 30.798 194.522 30.7281C194.581 30.6568 194.686 30.6488 194.756 30.7079L195.233 31.1112C195.269 31.1407 195.291 31.1844 195.293 31.2308L195.338 32.2706C195.342 32.362 195.271 32.4393 195.18 32.444C195.177 32.444 195.175 32.444 195.172 32.444Z" fill="black"/>
<path d="M198.23 32.1048C198.143 32.1048 198.07 32.037 198.064 31.9496L198.003 30.9925L197.399 30.5906C197.322 30.5402 197.301 30.4367 197.352 30.3607C197.403 30.2841 197.506 30.2619 197.583 30.3143L198.256 30.762C198.299 30.7909 198.327 30.8379 198.33 30.8897L198.397 31.9288C198.402 32.0202 198.333 32.0995 198.241 32.1048C198.237 32.1048 198.234 32.1048 198.23 32.1048Z" fill="black"/>
<path d="M201.723 31.2348C201.723 31.2348 198.976 30.8685 197.804 29.0363C196.632 27.2048 196.695 26.3311 196.695 26.3311C196.695 26.3311 195.34 27.1181 194.86 28.1424C194.38 29.1674 194.298 29.7118 194.298 29.7118C194.298 29.7118 193.843 27.51 194.076 26.8358C194.31 26.1617 195.59 22.3831 200.863 22.8448C208.858 23.5452 205.606 30.0317 201.723 31.2348Z" fill="black"/>
<path d="M202.682 56.114C202.682 56.114 202.439 56.0072 201.406 55.6382C200.428 55.2887 196.901 55.5562 196.901 55.5562C196.901 55.5562 193.833 56.0085 191.277 57.0167C188.721 58.0248 189.068 59.1762 189.068 59.1762C189.068 59.1762 187.423 60.0398 188.031 60.7664C188.64 61.4923 191.258 61.05 191.258 61.05C191.258 61.05 187.924 61.9896 189.196 62.8298C190.467 63.6699 194.718 62.3022 194.718 62.3022C194.718 62.3022 201.019 65.2118 203.33 63.1732C205.64 61.1347 202.682 56.114 202.682 56.114Z" fill="#FFA98F"/>
<path d="M201.041 55.2186L198.227 65.4982C198.227 65.4982 216.545 78.6558 224.198 68.3393C231.849 58.0227 217.614 42.5617 211.628 41.1092C205.643 39.6561 208.667 56.2725 208.667 56.2725L201.041 55.2186Z" fill="#3F9E97"/>
<path d="M199.269 82.5428C199.235 82.5428 199.2 82.5341 199.17 82.5159C198.748 82.2632 195.048 80.0083 195.068 78.4752C195.071 78.2278 195.173 77.8777 195.641 77.6142C196.035 77.3931 196.435 77.3675 196.829 77.5383C198.441 78.2359 199.418 82.1375 199.458 82.3029C199.476 82.3788 199.447 82.4581 199.385 82.5052C199.351 82.5307 199.31 82.5428 199.269 82.5428ZM196.312 77.8152C196.154 77.8152 195.994 77.8609 195.832 77.9523C195.581 78.0927 195.458 78.2655 195.456 78.4799C195.442 79.4679 197.686 81.1126 198.95 81.9231C198.641 80.8699 197.805 78.3831 196.674 77.8938C196.553 77.8414 196.433 77.8152 196.312 77.8152Z" fill="#5D2866"/>
<path d="M213.908 56.8469C213.885 56.8469 213.861 56.8428 213.839 56.8334C210.286 55.461 203.13 55.6868 203.06 55.6888C202.946 55.6787 202.863 55.6082 202.859 55.502C202.855 55.3951 202.939 55.305 203.046 55.3017C203.343 55.2916 210.352 55.0705 213.978 56.4718C214.078 56.5108 214.128 56.6231 214.089 56.7225C214.059 56.7998 213.985 56.8469 213.908 56.8469Z" fill="white"/>
<path d="M208.481 55.8318C208.4 55.8318 208.327 55.782 208.299 55.7047C208.268 55.6201 208.3 55.5253 208.375 55.4762C208.769 55.2181 212.26 52.986 213.517 53.8813C213.769 54.0601 213.765 54.2516 213.74 54.3498C213.544 55.1254 210.014 55.6436 208.505 55.8304C208.496 55.8311 208.489 55.8318 208.481 55.8318ZM212.731 54.052C211.832 54.052 210.391 54.745 209.38 55.3196C211.528 54.999 213.265 54.546 213.363 54.257C213.359 54.257 213.344 54.2335 213.293 54.1965C213.15 54.0957 212.958 54.052 212.731 54.052Z" fill="white"/>
<path d="M197.518 41.6554C197.443 41.6554 197.395 41.6548 197.379 41.6541C197.272 41.6514 197.188 41.562 197.192 41.4551C197.195 41.3483 197.272 41.271 197.391 41.2669C197.426 41.269 201.383 41.3557 202.991 39.215C203.055 39.1283 203.177 39.1121 203.262 39.176C203.348 39.2398 203.365 39.3615 203.301 39.4469C201.73 41.5391 198.266 41.6554 197.518 41.6554Z" fill="white"/>
<path d="M189.175 62.6392H167.807L161.704 48.8441H182.23C182.742 48.8441 183.206 49.1459 183.413 49.6144L189.175 62.6392Z" fill="white"/>
<path d="M187.32 62.6391H165.952L160.505 50.3273C160.196 49.629 160.708 48.8439 161.472 48.8439H181.217L187.32 62.6391Z" fill="#FC8A5E"/>
<path d="M196.34 64.3821H166.171C165.689 64.3821 165.299 63.9923 165.299 63.5111C165.299 63.0298 165.689 62.64 166.171 62.64H196.34C196.821 62.64 197.211 63.0298 197.211 63.5111C197.211 63.9923 196.821 64.3821 196.34 64.3821Z" fill="black"/>
<path d="M189.071 59.3432C189.013 59.3432 188.958 59.3136 188.927 59.2598C188.881 59.1805 188.908 59.079 188.988 59.0333C189.009 59.0205 191.217 57.757 194.012 56.9612C194.1 56.937 194.193 56.9874 194.218 57.0755C194.243 57.1635 194.192 57.2556 194.103 57.2811C191.347 58.0655 189.175 59.3082 189.154 59.321C189.128 59.3358 189.099 59.3432 189.071 59.3432Z" fill="black"/>
<path d="M190.945 61.1331C190.892 61.1331 190.839 61.1069 190.808 61.0592C190.756 60.9826 190.777 60.8798 190.853 60.8287C190.93 60.7776 192.756 59.5711 194.47 59.4246C194.571 59.4172 194.643 59.4844 194.651 59.5759C194.659 59.6673 194.591 59.7472 194.499 59.7553C192.87 59.8951 191.056 61.0928 191.038 61.1049C191.009 61.1244 190.976 61.1331 190.945 61.1331Z" fill="black"/>
<path d="M142.276 38.1443H173.332C174.775 38.1443 175.945 36.9755 175.945 35.5338V19.596C175.945 18.1543 174.775 16.9861 173.332 16.9861H142.276C140.833 16.9861 139.664 18.1549 139.664 19.596V35.5338C139.664 36.9755 140.833 38.1443 142.276 38.1443Z" fill="white"/>
<path d="M168.833 35.9471L172.16 44.6839L161.77 36.874L168.833 35.9471Z" fill="white"/>
<path d="M170.498 23.733H145.108C144.601 23.733 144.189 23.3223 144.189 22.8149C144.189 22.3075 144.6 21.8968 145.108 21.8968H170.498C171.005 21.8968 171.417 22.3075 171.417 22.8149C171.417 23.3223 171.005 23.733 170.498 23.733Z" fill="#D098D3"/>
<path d="M170.498 28.4157H145.108C144.601 28.4157 144.189 28.005 144.189 27.4976C144.189 26.9908 144.6 26.5795 145.108 26.5795H170.498C171.005 26.5795 171.417 26.9901 171.417 27.4976C171.416 28.005 171.005 28.4157 170.498 28.4157Z" fill="#D098D3"/>
<path d="M303.336 107.725H277.946C277.439 107.725 277.028 107.314 277.028 106.807C277.028 106.3 277.439 105.889 277.946 105.889H303.336C303.843 105.889 304.255 106.299 304.255 106.807C304.255 107.314 303.844 107.725 303.336 107.725Z" fill="white"/>
<path d="M303.336 113.1H277.946C277.439 113.1 277.028 112.689 277.028 112.182C277.028 111.676 277.439 111.264 277.946 111.264H303.336C303.843 111.264 304.255 111.675 304.255 112.182C304.255 112.69 303.844 113.1 303.336 113.1Z" fill="white"/>
<path d="M170.498 33.2326H145.108C144.601 33.2326 144.189 32.822 144.189 32.3145C144.189 31.8078 144.6 31.3964 145.108 31.3964H170.498C171.005 31.3964 171.417 31.8071 171.417 32.3145C171.416 32.822 171.005 33.2326 170.498 33.2326Z" fill="#D098D3"/>
</svg>
