<svg width="52" height="72" viewBox="0 0 52 72" fill="none" xmlns="http://www.w3.org/2000/svg">
<path d="M51.3356 25.6592C51.3356 11.4864 39.8423 0 25.6678 0C11.4876 0 0 11.4864 0 25.6592C0 30.954 1.60402 35.8713 4.35442 39.9552H4.34838L4.3771 39.9978C4.38314 40.0039 4.38316 40.0065 4.38807 40.0125L25.6674 71.9688L46.9864 39.9552H46.9747C49.7259 35.8713 51.3356 30.954 51.3356 25.6592Z" fill="#4659CA"/>
<path d="M39.5947 28.975C41.4097 21.2912 36.65 13.5914 28.9636 11.777C21.2772 9.96262 13.5749 14.7208 11.7599 22.4046C9.94496 30.0884 14.7047 37.7882 22.391 39.6026C30.0774 41.4169 37.7798 36.6588 39.5947 28.975Z" fill="white"/>
</svg>
