<svg width="44" height="62" viewBox="0 0 44 62" fill="none" xmlns="http://www.w3.org/2000/svg">
<path d="M43.8552 21.9203C43.8552 9.81269 34.037 0 21.9276 0C9.81364 0 0 9.81269 0 21.9203C0 26.4433 1.37018 30.6442 3.72 34.1329H3.71496L3.73969 34.1696C3.74474 34.1746 3.74473 34.1774 3.74932 34.1819L21.9276 61.4818L40.1402 34.1329H40.1302C42.48 30.6442 43.8552 26.4433 43.8552 21.9203Z" fill="#059669"/>
<path d="M21.9285 34.1332C15.1789 34.1332 9.71191 28.6652 9.71191 21.9206C9.71191 15.1755 15.1793 9.70801 21.9285 9.70801C28.6731 9.70801 34.1452 15.1759 34.1452 21.9206C34.1452 28.6652 28.6731 34.1332 21.9285 34.1332Z" fill="white"/>
</svg>
