<svg width="650" height="651" viewBox="0 0 650 651" fill="none" xmlns="http://www.w3.org/2000/svg">
<path d="M648.812 340.878C633.321 249.758 433.666 249.493 292.344 215.269C161.868 186.317 452.854 169.638 471.628 27.1527C472.791 18.4128 473.201 8.93145 472.151 0C458.232 1.23638 461.255 -0.596192 460.59 6.70432C446.717 150.39 159.712 125.778 205.606 219.237C231.986 272.958 474.604 292.797 478.129 341.046C481.654 389.295 95.2731 393.827 22.847 504.807C-69.9297 654.225 139.816 797.177 293.976 875.564C388.398 666.841 384.201 676.344 383.944 676.27C344.195 662.537 192.881 639.301 201.144 571.177C209.408 503.053 670.32 470.899 648.812 340.878Z" fill="#002F59"/>
</svg>
