<svg width="742" height="651" viewBox="0 0 742 651" xmlns="http://www.w3.org/2000/svg">
  <path d="M0 632.234C0 752.942 166.117 862.384 293.99 927.404L386.407 899.105C471.242 711.573 476.468 700.203 476.468 699.774L476.468 676.235C440.277 663.814 312.743 643.565 295.245 589.212C301.328 576.729 322.573 565.391 352.725 554.307C389.046 544.24 428.213 533.769 465.809 522.262L558.22 493.977C655.338 464.252 741.975 427.611 741.975 373.156L741.972 349.619C741.972 346.751 741.733 343.84 741.243 340.879C723.069 249.754 525.146 249.263 384.775 215.27C377.185 213.585 371.021 211.943 366.147 210.314C412.429 186.358 551.283 147.656 564.06 50.6861C564.761 45.4221 565.188 39.8882 565.188 34.368L565.187 10.8351C565.186 7.19099 565 3.55196 564.582 0C558.426 0.546702 555.584 0.493083 554.271 0.895434L461.86 29.1622C460.204 29.6686 460.981 30.8994 460.61 34.9715C447.761 168.042 200.654 156.768 200.65 228.608L200.649 251.731C200.649 257.877 202.223 264.14 205.615 271.047C229.538 319.764 431.275 340.618 471.302 380.06C406.024 393.208 319.555 407.172 246.877 429.412L154.455 457.694C94.9322 475.909 44.6597 499.675 22.8513 533.092C7.03064 558.572 0.00641573 583.863 0.00366527 608.678L0 632.234Z"
  fill="#D9D9D9"/>
</svg>